<svg width="32" height="32" viewBox="0 0 32 32" fill="none" xmlns="http://www.w3.org/2000/svg">
<rect width="32" height="32" rx="8" fill="#00143C"/>
<path d="M8.96516 22V9.22H14.6172C15.2052 9.22 15.7452 9.34 16.2372 9.58C16.7412 9.82 17.1732 10.144 17.5332 10.552C17.9052 10.96 18.1872 11.416 18.3792 11.92C18.5832 12.424 18.6852 12.94 18.6852 13.468C18.6852 14.008 18.5892 14.53 18.3972 15.034C18.2172 15.526 17.9532 15.958 17.6052 16.33C17.2572 16.702 16.8492 16.99 16.3812 17.194L19.2972 22H16.5612L13.9332 17.716H11.4492V22H8.96516ZM11.4492 15.538H14.5632C14.8752 15.538 15.1512 15.448 15.3912 15.268C15.6312 15.076 15.8232 14.824 15.9672 14.512C16.1112 14.2 16.1832 13.852 16.1832 13.468C16.1832 13.06 16.0992 12.706 15.9312 12.406C15.7632 12.094 15.5472 11.848 15.2832 11.668C15.0312 11.488 14.7552 11.398 14.4552 11.398H11.4492V15.538ZM21.3679 22V19.408H23.3479V22H21.3679Z" fill="#FEB058"/>
</svg>
