<svg width="128" height="128" fill="none" xmlns="http://www.w3.org/2000/svg"><path d="M47.36 5.12c-11.987 0-21.76 9.773-21.76 21.76 0 8.449 4.992 15.598 12.055 19.2C30.592 49.682 25.6 56.831 25.6 65.28s4.992 15.598 12.055 19.2C30.592 88.082 25.6 95.231 25.6 103.68c0 11.987 9.773 21.76 21.76 21.76 11.987 0 21.76-9.773 21.76-21.76V75.92c3.434 6.516 10.066 11.12 17.92 11.12 11.28 0 20.48-9.2 20.48-20.48 0-9.272-6.333-16.823-14.81-19.33 8.547-2.938 14.81-10.826 14.81-20.35 0-11.987-9.773-21.76-21.76-21.76h-38.4zm0 5.12H64v33.28H47.36c-9.22 0-16.64-7.42-16.64-16.64s7.42-16.64 16.64-16.64zm21.76 0h16.64c9.22 0 16.64 7.42 16.64 16.64s-7.42 16.64-16.64 16.64H69.12V10.24zm-21.76 38.4H64v33.28H47.36c-9.22 0-16.64-7.42-16.64-16.64s7.42-16.64 16.64-16.64zm21.76 0h8.56a20.338 20.338 0 00-8.56 8.56v-8.56zm17.92 2.56c8.513 0 15.36 6.847 15.36 15.36 0 8.513-6.847 15.36-15.36 15.36a15.321 15.321 0 01-15.36-15.36c0-8.513 6.847-15.36 15.36-15.36zM47.36 87.04H64v16.64c0 9.22-7.42 16.64-16.64 16.64s-16.64-7.42-16.64-16.64 7.42-16.64 16.64-16.64z" fill="#F8F8FF" opacity=".32"/></svg>