<svg width="128" height="128" fill="none" xmlns="http://www.w3.org/2000/svg"><path d="M64 10.24c1.45 0 2.81.56 3.83 1.59l48.34 48.34a5.408 5.408 0 010 7.66l-48.34 48.34a5.345 5.345 0 01-3.83 1.59c-1.45 0-2.81-.56-3.83-1.59L11.83 67.83a5.408 5.408 0 010-7.66l31.54-31.54 5.82 5.82c-1.4 5.2.01 10.87 3.95 14.81.94.94 2.01 1.75 3.18 2.42v24.65c-4.66 2.69-7.68 7.7-7.68 13.27 0 8.47 6.89 15.36 15.36 15.36 8.47 0 15.36-6.89 15.36-15.36 0-5.57-3.02-10.58-7.68-13.27V56.94l3.11 3.11c-1.4 5.2.01 10.87 3.95 14.81 2.9 2.9 6.76 4.5 10.86 4.5s7.96-1.6 10.86-4.5c5.99-5.99 5.99-15.73 0-21.72a15.172 15.172 0 00-10.81-4.48c-1.35 0-2.7.18-4 .53l-6.84-6.84c1.4-5.2-.01-10.87-3.95-14.81a15.172 15.172 0 00-10.81-4.48c-1.35 0-2.7.18-4 .53l-5.82-5.82 5.94-5.94A5.345 5.345 0 0164 10.24zm0-5.12c-2.7 0-5.4 1.03-7.45 3.09l-9.56 9.56L58.82 29.6c1.61-.94 3.42-1.42 5.23-1.42 2.6 0 5.2.99 7.19 2.98 3.37 3.37 3.86 8.49 1.55 12.41L84.42 55.2c1.61-.94 3.42-1.42 5.23-1.42 2.6 0 5.2.99 7.19 2.98 4 4 4 10.48 0 14.48-2 2-4.62 3-7.24 3s-5.24-1-7.24-3c-3.37-3.37-3.86-8.49-1.55-12.42L69.18 47.19c-.83.49-1.71.85-2.62 1.08v31.45c4.41 1.14 7.68 5.11 7.68 9.88 0 5.66-4.58 10.24-10.24 10.24-5.65 0-10.24-4.58-10.24-10.24 0-4.77 3.27-8.74 7.68-9.88V48.27c-1.71-.44-3.34-1.29-4.68-2.63-3.37-3.37-3.86-8.49-1.55-12.41L43.37 21.39 8.21 56.55c-4.12 4.11-4.12 10.79 0 14.9l48.34 48.34c2.05 2.06 4.75 3.09 7.45 3.09s5.4-1.03 7.45-3.09l48.34-48.34c4.12-4.11 4.12-10.79 0-14.9L71.45 8.21A10.477 10.477 0 0064 5.12z" fill="#F8F8FF" opacity=".32"/></svg>