<svg width="128" height="128" fill="none" xmlns="http://www.w3.org/2000/svg"><path d="M88.617 4c-.163.006-.29.052-.375.133L73.382 21.78l-3.03 10.422c-2.06-.068-4.188-.094-6.368-.094C48.54 32.11 36 33.745 36 35.773c0 4.84 55.96 4.84 55.96 0 0-1.5-6.698-2.767-16.358-3.367L78 23.828 91.898 7.11l.024-.023c.312-.324-.297-1.297-1.29-2.149-.743-.642-1.526-.956-2.015-.937zM69.211 36.305l-.055.164c-.024.02-.023.046-.023.07 0 .3 1.211.547 2.687.547 1.476 0 2.696-.247 2.696-.547l.046-.188c.389.14.602.3.602.485 0 .484-1.5.88-3.367.86-1.816 0-3.32-.368-3.32-.852 0-.208.298-.4.734-.54zm22.437 1.375c-7.404 3.948-47.849 3.974-55.28.054l3.288 28.93c1.428-4.612 5.04-10.839 9.688-12.727 1.524-.623 3.071-.62 4.523.211 1.26.692 2.326 2.143 2.446 2.72.291 1.5-.482 2.093-1.086 2.093-.728 0-1.285-1.056-1.649-1.68-.992-1.684-2.494-1.756-4.094-.648-1.672 1.152-3.124 3.09-4.14 4.773-1.236 2.028-2.279 4.264-2.907 6.5-.363 1.292-.696 3.362-.14 4.586.244.508.603.828 1.187.828 1.212 0 2.973-1.52 3.82-2.328 1.089-1.036 2.492-2.651 3.024-3.687l1.266-3.57c.628-1.569 2.39-1.293 2.39 0 0 2.351-.89 3.135-2.414 8-1.404 4.495-1.843 5.953-1.843 5.953-.168.644-.824 1.726-1.524 1.726-.292 0-.505-.097-.625-.281-.244-.324-.22-1.213-.195-1.445.048-.737 1.521-5.121 1.765-5.813-.484.508-.99 1.02-1.546 1.523-1.308 1.176-3.412 2.72-5.204 2.72-.824 0-1.35-.212-1.859-.555l1.836 18.351c.484 1.152 9.492 3.945 21.352 3.945 11.884 0 20.883-2.813 21.343-3.945l2.64-21.805c-1.38 1.2-2.973 2.678-4.741 3.414-1.308.532-4.211.872-4.211-1.32 0-1.2 2.204-3.409 3.484-4.953.34-.392 1.133-1.36 1.133-1.867 0-.668-1.448-.514-2.828.57-.776.624-1.505 1.458-2.11 2.242-1.04 1.384-1.594 2.579-2.054 3.57-1.5 3.273-.991 1.983-2.203 5.07-1.212 3.069-1.014 2.72-1.258 3.228-.216.44-.533.81-.969 1.038-.46.233-1.088.206-1.476-.07-.216-.14-.32-.44-.32-.851 0-.208.03-.417.077-.625.364-1.408 1.89-4.17 3.633-7.907.388-.852.24-.599.188-.53-1.5 1.383-2.64 2.053-3.485 2.421-1.404.6-3.147.599-3.507-.945-.025-.092-.023-.19-.047-.281-2.856 2.12-5.88 2.696-4.836-1.868-1.112 1.892-3.054 3.438-5.43 3.438-.992 0-1.718-.32-2.078-1.172-.556-1.268.313-3.44 1.11-5.492a41.772 41.772 0 011.726-3.735c.388-.784 1.012-1.247 1.836-1.039.144.048.27.096.39.164.628.416.387 1.033.07 1.657-.92 1.728-1.717 2.996-2.25 4.796-.215.76-.488 2.079.36 2.079.58 0 1.136-.187 1.672-.555 1.112-.784 2.007-1.957 2.687-3.11.484-.828 1.068-1.911 1.36-2.835.12-.392.27-.762.437-1.11.268-.576.626-1.172 1.258-1.172.316 0 .578.116.774.344.412.508.321 1.03.101 1.586-.484 1.292-1.136 2.448-1.672 3.852-.316.808-.656 1.843-.656 2.695 0 .784.896.597 1.648.273.58-.252 1.16-.639 1.649-1.03.292-1.129.215-.88 6.39-15.727.317-.76.897-1.086 1.477-1.086.292 0 .53.097.773.257.413.3.419.938.25 1.422-.168.44-.15.302-1.093 2.422-1.26 2.788-2.08 4.8-3.196 7.36-.46 1.06-1.861 4.356-2.101 5.14-.144.508-.318 1.336.242 1.336 1.308 0 4.674-3.022 5.594-3.922.048-.068.123-.092.219-.14.144-.44.286-.85.406-1.266.34-.876.657-1.897 1.289-2.61.192-.231.408-.367.648-.367.676 0 1.016.274 1.016.922 0 .252-.166 1.178-.266 1.43.34-.344.698-.687 1.086-1.031 3.632-3.204 6.219-1.57 6.219.047 0 1.704-2.152 4.074-3.336 5.39-.388.44-1.187 1.245-1.21 1.477 0 .3.214.422.53.422.484 0 1.55-.81 1.938-1.086 1.212-.9 2.852-2.282 4.016-3.25l3.585-31.54zm-47.93 58.445l3.61 5.859 1.406 18.305c0 2.052 6.85 3.711 15.274 3.711s15.273-1.659 15.273-3.711l1.117-18.492 3.407-5.672c-9.588 3.852-30.11 3.988-40.086 0z" fill="#F8F8FF" opacity=".32"/></svg>