<svg width="128" height="128" fill="none" xmlns="http://www.w3.org/2000/svg"><path d="M15.36 10.24c-2.798 0-5.12 2.322-5.12 5.12v97.28c0 2.798 2.322 5.12 5.12 5.12h97.28c2.798 0 5.12-2.322 5.12-5.12V15.36c0-2.798-2.322-5.12-5.12-5.12H15.36zm0 5.12h97.28v97.28H15.36V15.36zm32.22 20.48c-3.686 0-6.635.41-9.175 1.065L38.4 92.16h6.31V68.685c.901.08 1.72.08 2.785.08 4.915 0 10.076-2.044 13.025-6.14 2.133-2.785 3.355-6.226 3.355-11.305 0-4.83-1.39-8.849-4.01-11.47-2.867-2.785-7.208-4.01-12.285-4.01zm1 4.2c7.043 0 9.335 5.072 9.335 10.725 0 7.782-4.178 11.88-10.32 11.88-1.065 0-1.803-.08-2.54-.16V40.45c.82-.248 2.05-.41 3.525-.41zM81.195 51.2c-6.377 0-11.305 4.528-11.305 11.025 0 4.524 2.885 7.979 8.24 11.35 4.163 2.632 5.265 4.771 5.265 7.815 0 3.535-2.374 5.755-6.03 5.755-2.637 0-5.186-1.151-6.63-2.055l-1.615 4.765c1.785 1.398 5.1 2.305 8.075 2.305 6.8 0 12.405-3.865 12.405-11.845 0-5.51-3.736-9.213-8.49-12.175-4.08-2.63-5.1-4.193-5.1-6.825 0-2.63 1.781-5.095 5.265-5.095 2.21 0 3.912.74 5.525 1.81l1.7-4.775c-1.7-1.068-4.074-2.055-7.305-2.055z" fill="#F8F8FF" opacity=".32"/></svg>