<svg version="1.0" xmlns="http://www.w3.org/2000/svg" width="933.333" height="933.333" viewBox="0 0 700 700"><path d="M159.9.4c-.2.2-2.9.7-5.9 1-14.6 1.5-34 6.5-46.5 12.1-17.3 7.7-29.5 15-43.5 26-4.3 3.4-21.5 20.8-25.7 26-20.1 25-33.2 56.6-37.1 89-.9 8-.9 382 0 391 .4 3.8 1 8.1 1.3 9.5.3 1.4 1 5 1.6 8 1.9 9.6 8.7 28.6 14.3 39.9 9 18.2 20.9 34.4 35.2 48.1 7.8 7.5 23.3 20 24.8 20 .3 0 2.6 1.4 5.1 3.1 11.2 7.5 30.5 15.8 47.7 20.3 20.3 5.3 13 5.1 218.3 5.1 105.1 0 193.9-.4 197.5-.8 37.6-4.8 73.1-22 99.6-48.2 15.6-15.4 24.1-26.6 33.1-43.5 7.8-14.6 15.5-37.4 17.8-52.5.4-2.8 1-6.1 1.3-7.5.9-4 1.2-385 .3-390.5-.5-2.8-1.1-7.3-1.5-10-2.5-21.3-16.5-55.4-29.9-73-7.3-9.7-10.4-13.4-17.7-20.8-8.2-8.5-21.2-19.6-26.8-22.7-1.5-.9-4.9-3-7.6-4.8-15.2-9.8-42.7-20-61.1-22.7-2.7-.4-6.1-1-7.5-1.3C544.2.5 160.6-.2 159.9.4z"/></svg>