<svg width="40" height="41" viewBox="0 0 40 41" fill="none" xmlns="http://www.w3.org/2000/svg">
<path fill-rule="evenodd" clip-rule="evenodd" d="M19.9999 5.99609C20.4419 5.99619 20.8657 6.17184 21.1782 6.48443L32.8449 18.1511C33.1485 18.4654 33.3165 18.8864 33.3127 19.3234C33.3089 19.7604 33.1336 20.1784 32.8246 20.4875C32.5155 20.7965 32.0975 20.9718 31.6605 20.9755C31.2235 20.9793 30.8025 20.8114 30.4882 20.5078L21.6665 11.6861V34.3294C21.6665 34.7715 21.4909 35.1954 21.1784 35.5079C20.8658 35.8205 20.4419 35.9961 19.9999 35.9961C19.5578 35.9961 19.1339 35.8205 18.8214 35.5079C18.5088 35.1954 18.3332 34.7715 18.3332 34.3294V11.6861L9.51153 20.5078C9.19719 20.8114 8.77619 20.9793 8.3392 20.9755C7.9022 20.9718 7.48418 20.7965 7.17517 20.4875C6.86615 20.1784 6.69087 19.7604 6.68707 19.3234C6.68328 18.8864 6.85127 18.4654 7.15487 18.1511L18.8215 6.48443C19.134 6.17184 19.5579 5.99619 19.9999 5.99609Z" fill="#F8F8FF"/>
</svg>
