<svg width="128" height="128" fill="none" xmlns="http://www.w3.org/2000/svg"><g opacity=".32"><path opacity=".8" d="M17.07 10.24c-3.74 0-6.83 3.09-6.83 6.83v93.86c0 3.74 3.09 6.83 6.83 6.83h93.86c3.74 0 6.83-3.08 6.83-6.83V17.07c0-3.74-3.08-6.83-6.83-6.83H17.07zm0 5.12h93.86c.95 0 1.71.76 1.71 1.71v93.86c0 .95-.76 1.71-1.71 1.71H17.07c-.95 0-1.71-.76-1.71-1.71V17.07c0-.95.76-1.71 1.71-1.71zm41.81 43.52v32.19c0 4.94-1.87 6.21-5.12 6.21-3.4 0-5.76-2.12-7.32-4.87l-8.04 4.87c2.33 4.93 8.04 10.24 15.96 10.24 8.76 0 14.76-4.66 14.76-14.89V58.88H58.88zm31.88 0c-8.72 0-14.31 5.58-14.31 12.91 0 7.95 4.69 11.71 11.74 14.71l2.44 1.05c4.45 1.95 6.65 3.14 6.65 6.49 0 2.79-2.12 4.81-6.17 4.81-4.82 0-7.1-3.27-9.19-6.69l-7.68 5.12c2.87 5.67 8.02 10.24 17.09 10.24 9.28 0 16.19-4.82 16.19-13.61 0-8.16-4.68-11.79-12.99-15.35l-2.44-1.04c-4.19-1.82-6.01-3-6.01-5.93 0-2.37 1.82-4.19 4.68-4.19 2.81 0 4.61 1.19 6.28 4.19l7.61-4.88c-3.21-5.67-7.68-7.83-13.89-7.83z" fill="#F8F8FF"/></g></svg>