<svg width="128" height="128" fill="none" xmlns="http://www.w3.org/2000/svg"><path d="M64 30.72c-16.62 0-31.69 3.48-42.82 9.29C10.05 45.82 2.56 54.19 2.56 64c0 9.81 7.49 18.18 18.62 23.99 11.13 5.81 26.2 9.29 42.82 9.29s31.69-3.48 42.82-9.29c11.13-5.81 18.62-14.18 18.62-23.99 0-9.81-7.49-18.18-18.62-23.99-11.13-5.81-26.2-9.29-42.82-9.29zm0 5.12c15.9 0 30.27 3.39 40.45 8.71 10.18 5.31 15.87 12.29 15.87 19.45s-5.69 14.14-15.87 19.45C94.27 88.77 79.9 92.16 64 92.16c-15.9 0-30.27-3.39-40.45-8.71C13.37 78.14 7.68 71.16 7.68 64s5.69-14.14 15.87-19.45C33.73 39.23 48.1 35.84 64 35.84zm-6.38 5.12L51.2 71.68h6.72l3.24-15.36h5.37c1.71 0 2.85.28 3.38.85.52.57.63 1.65.33 3.2l-2.45 11.31h6.82l2.66-12.23c.57-2.93.14-5.08-1.28-6.39-1.45-1.33-4-1.86-7.8-1.86H62.2l2.13-10.24h-6.71zM28.16 51.2l-5.19 28.16h6.77l1.35-7.68h4.22c8.82 0 13.62-2.04 15.41-9.61 1.54-6.51-2.4-10.87-8.91-10.87H28.16zm53.76 0l-5.19 28.16h6.77l1.35-7.68h4.22c8.82 0 13.62-2.04 15.41-9.61 1.54-6.51-2.4-10.87-8.91-10.87H81.92zm-47.94 5.12h5.27c4.38 0 5.3 1.97 5.07 4.16-.59 5.65-4.11 6.08-7.89 6.08h-4.39l1.94-10.24zm53.76 0h5.27c4.38 0 5.3 1.97 5.07 4.16-.59 5.65-4.11 6.08-7.89 6.08H85.8l1.94-10.24z" fill="#F8F8FF" opacity=".32"/></svg>