<svg width="128" height="128" fill="none" xmlns="http://www.w3.org/2000/svg"><path d="M64 5.12c-10.39 0-17.44 2.48-21.92 6.08s-6.24 8.23-6.24 12.08v12.56h25.6v2.56H23.28c-4.68 0-9.43 2.03-12.8 6.32C7.11 49.01 5.12 55.41 5.12 64c0 8.59 1.99 14.99 5.36 19.28 3.37 4.29 8.12 6.32 12.8 6.32h12.56v15.12c0 3.85 1.76 8.48 6.24 12.08 4.48 3.6 11.53 6.08 21.92 6.08 10.39 0 17.44-2.48 21.92-6.08s6.24-8.23 6.24-12.08V92.16h-25.6V89.6h38.16c4.68 0 9.43-2.03 12.8-6.32 3.37-4.29 5.36-10.69 5.36-19.28 0-8.59-1.99-14.99-5.36-19.28-3.37-4.29-8.12-6.32-12.8-6.32H92.16V23.28c0-3.95-1.75-8.59-6.24-12.16-4.49-3.57-11.54-6-21.92-6zm0 5.12c9.59 0 15.4 2.24 18.72 4.88 3.32 2.64 4.32 5.71 4.32 8.16v30.48c0 4.24-3.44 7.68-7.68 7.68H48.64c-5.27 0-9.81 3.25-11.76 7.84-.33.76-.63 1.57-.8 2.4-.17.83-.24 1.68-.24 2.56v10.24H23.28c-3.25 0-6.26-1.27-8.72-4.4-2.46-3.13-4.32-8.29-4.32-16.08 0-7.79 1.86-12.95 4.32-16.08 2.46-3.13 5.47-4.4 8.72-4.4h43.28v-12.8h-25.6v-7.44c0-2.29.99-5.41 4.32-8.08s9.14-4.96 18.72-4.96zm-12.8 7.68a5.13 5.13 0 00-5.12 5.12c0 2.82 2.3 5.12 5.12 5.12 2.82 0 5.12-2.3 5.12-5.12 0-2.82-2.3-5.12-5.12-5.12zm40.96 25.6h12.56c3.25 0 6.26 1.27 8.72 4.4 2.46 3.13 4.32 8.29 4.32 16.08 0 7.79-1.86 12.95-4.32 16.08-2.46 3.13-5.47 4.4-8.72 4.4H61.44v12.8h25.6v7.44c0 2.29-.99 5.41-4.32 8.08s-9.14 4.96-18.72 4.96c-9.58 0-15.39-2.29-18.72-4.96-3.33-2.67-4.32-5.79-4.32-8.08V74.24c0-.53.06-1.02.16-1.52.72-3.5 3.81-6.16 7.52-6.16h30.72c7.03 0 12.8-5.77 12.8-12.8V43.52zM76.8 99.84a5.13 5.13 0 00-5.12 5.12c0 2.82 2.3 5.12 5.12 5.12 2.82 0 5.12-2.3 5.12-5.12 0-2.82-2.3-5.12-5.12-5.12z" fill="#F8F8FF" opacity=".32"/></svg>