<svg width="24" height="25" viewBox="0 0 24 25" fill="none" xmlns="http://www.w3.org/2000/svg">
<path fill-rule="evenodd" clip-rule="evenodd" d="M5.29279 6.28393C5.48031 6.09646 5.73462 5.99114 5.99979 5.99114C6.26495 5.99114 6.51926 6.09646 6.70679 6.28393L11.9998 11.5769L17.2928 6.28393C17.385 6.18842 17.4954 6.11223 17.6174 6.05982C17.7394 6.00742 17.8706 5.97983 18.0034 5.97868C18.1362 5.97752 18.2678 6.00282 18.3907 6.0531C18.5136 6.10338 18.6253 6.17764 18.7192 6.27153C18.8131 6.36542 18.8873 6.47708 18.9376 6.59997C18.9879 6.72287 19.0132 6.85455 19.012 6.98733C19.0109 7.12011 18.9833 7.25133 18.9309 7.37333C18.8785 7.49533 18.8023 7.60568 18.7068 7.69793L13.4138 12.9909L18.7068 18.2839C18.8889 18.4725 18.9897 18.7251 18.9875 18.9873C18.9852 19.2495 18.88 19.5003 18.6946 19.6857C18.5092 19.8712 18.2584 19.9763 17.9962 19.9786C17.734 19.9809 17.4814 19.8801 17.2928 19.6979L11.9998 14.4049L6.70679 19.6979C6.51818 19.8801 6.26558 19.9809 6.00339 19.9786C5.74119 19.9763 5.49038 19.8712 5.30497 19.6857C5.11956 19.5003 5.01439 19.2495 5.01211 18.9873C5.00983 18.7251 5.11063 18.4725 5.29279 18.2839L10.5858 12.9909L5.29279 7.69793C5.10532 7.5104 5 7.25609 5 6.99093C5 6.72576 5.10532 6.47145 5.29279 6.28393Z" fill="#FEB058"/>
</svg>
