<svg width="40" height="41" fill="none" xmlns="http://www.w3.org/2000/svg"><path d="M14.6 20.994a5.401 5.401 0 115.4 5.402 5.401 5.401 0 01-5.4-5.402zm-2.92 0a8.32 8.32 0 108.32-8.32 8.32 8.32 0 00-8.32 8.32zm15.026-8.65A1.945 1.945 0 1028.65 10.4a1.945 1.945 0 00-1.945 1.944zm-13.252 21.84c-1.58-.072-2.438-.335-3.009-.558a5.035 5.035 0 01-1.864-1.212 5 5 0 01-1.212-1.862c-.222-.57-.485-1.43-.557-3.01-.079-1.707-.094-2.22-.094-6.548 0-4.327.017-4.838.094-6.548.072-1.58.337-2.437.557-3.009a5.036 5.036 0 011.212-1.864 4.994 4.994 0 011.864-1.212c.57-.222 1.43-.485 3.01-.557 1.707-.079 2.22-.094 6.546-.094 4.325 0 4.838.017 6.548.094 1.58.072 2.437.337 3.009.557a5.02 5.02 0 011.864 1.212 5.022 5.022 0 011.212 1.864c.222.57.485 1.43.557 3.01.079 1.709.094 2.22.094 6.547 0 4.328-.015 4.84-.094 6.549-.072 1.58-.336 2.438-.557 3.009a5.021 5.021 0 01-1.212 1.862 5.036 5.036 0 01-1.864 1.212c-.57.223-1.43.486-3.01.558-1.707.078-2.22.094-6.547.094-4.328 0-4.84-.016-6.547-.094zM13.32 4.889c-1.725.078-2.904.352-3.933.752a7.948 7.948 0 00-2.87 1.87 7.917 7.917 0 00-1.87 2.87c-.4 1.03-.673 2.208-.752 3.933-.08 1.727-.098 2.28-.098 6.68s.018 4.953.098 6.68c.079 1.726.352 2.904.753 3.934a7.921 7.921 0 001.869 2.87 7.967 7.967 0 002.87 1.87c1.031.4 2.208.673 3.933.752 1.729.078 2.28.098 6.68.098 4.401 0 4.953-.018 6.681-.098 1.725-.079 2.903-.352 3.933-.753a7.968 7.968 0 002.87-1.869 7.937 7.937 0 001.87-2.87c.4-1.03.675-2.208.752-3.933.079-1.73.097-2.28.097-6.68 0-4.401-.018-4.954-.097-6.681-.078-1.725-.352-2.904-.753-3.933a7.968 7.968 0 00-1.869-2.87 7.928 7.928 0 00-2.869-1.87c-1.03-.4-2.209-.675-3.933-.752-1.727-.079-2.28-.098-6.68-.098s-4.953.018-6.682.098z" fill="#F8F8FF"/></svg>