<svg width="28" height="28" fill="none" xmlns="http://www.w3.org/2000/svg"><path fill-rule="evenodd" clip-rule="evenodd" d="M4.344 9.86l4.16-1.467a20.998 20.998 0 00-2.2 3.705L4.343 9.86zm-2.89.242l3.854 4.402L4.75 15.9a1.167 1.167 0 00.257 1.257l.368.367c-1.988 2.24-3.085 4.583-4.15 7.773a1.167 1.167 0 001.477 1.476c3.19-1.064 5.533-2.161 7.773-4.149l.367.367a1.167 1.167 0 001.257.257l1.396-.557 4.403 3.853a1.167 1.167 0 001.869-.49l3.483-9.87a15.167 15.167 0 003.583-9.79v-4.06a1.167 1.167 0 00-1.167-1.167h-4.06a15.167 15.167 0 00-9.79 3.581l-9.87 3.485a1.167 1.167 0 00-.49 1.868h-.001zM4.3 23.7c.733-1.769 1.554-3.176 2.729-4.523l1.794 1.794C7.475 22.146 6.068 22.967 4.3 23.7zm7.649-2.903l-.623-.623-3.5-3.5-.623-.622.828-2.071c.76-1.9 1.827-3.662 3.16-5.215l.671-.785A12.833 12.833 0 0121.606 3.5H24.5v2.893a12.833 12.833 0 01-4.481 9.745l-.786.672a18.666 18.666 0 01-5.215 3.159l-2.07.828zm6.191 2.857l-2.238-1.957a21 21 0 003.706-2.202l-1.468 4.16zM17.5 9.333a1.167 1.167 0 112.334 0 1.167 1.167 0 01-2.333 0zm1.167-3.5a3.5 3.5 0 100 7 3.5 3.5 0 000-7z" fill="#00143C"/></svg>