<svg width="40" height="41" viewBox="0 0 40 41" fill="none" xmlns="http://www.w3.org/2000/svg">
<path fill-rule="evenodd" clip-rule="evenodd" d="M16.6667 9.32746C14.4565 9.32746 12.3369 10.2054 10.7741 11.7682C9.21131 13.331 8.33333 15.4507 8.33333 17.6608C8.33333 19.8709 9.21131 21.9905 10.7741 23.5533C12.3369 25.1161 14.4565 25.9941 16.6667 25.9941C18.8768 25.9941 20.9964 25.1161 22.5592 23.5533C24.122 21.9905 25 19.8709 25 17.6608C25 15.4507 24.122 13.331 22.5592 11.7682C20.9964 10.2054 18.8768 9.32746 16.6667 9.32746ZM5 17.6608C5 15.8129 5.43896 13.9914 6.28072 12.3464C7.12248 10.7013 8.34297 9.27977 9.84168 8.19875C11.3404 7.11773 13.0744 6.40817 14.9011 6.12852C16.7277 5.84886 18.5946 6.0071 20.3481 6.59021C22.1016 7.17331 23.6915 8.1646 24.9869 9.48245C26.2822 10.8003 27.246 12.407 27.7989 14.1703C28.3518 15.9335 28.4779 17.8029 28.1669 19.6244C27.8559 21.4459 27.1166 23.1676 26.01 24.6475L34.5117 33.1475C34.8244 33.46 35.0002 33.8839 35.0003 34.326C35.0005 34.7681 34.825 35.1922 34.5125 35.505C34.2 35.8177 33.776 35.9935 33.3339 35.9936C32.8918 35.9938 32.4677 35.8183 32.155 35.5058L23.655 27.0058C21.9209 28.303 19.8599 29.092 17.7028 29.2843C15.5457 29.4766 13.3776 29.0647 11.4413 28.0948C9.50506 27.1248 7.87697 25.6351 6.73934 23.7923C5.60171 21.9495 4.99946 19.8264 5 17.6608Z" fill="#F8F8FF"/>
</svg>
