<svg width="40" height="40" fill="none" xmlns="http://www.w3.org/2000/svg"><path fill-rule="evenodd" clip-rule="evenodd" d="M18.088 6.885c.725-1.672 3.098-1.672 3.823 0l3.3 7.61 8.257.787c1.813.171 2.547 2.428 1.18 3.635l-6.217 5.49 1.804 8.095c.396 1.78-1.523 3.173-3.093 2.246L20 30.533l-7.142 4.217c-1.57.927-3.49-.467-3.093-2.247l1.803-8.095-6.216-5.49c-1.367-1.206-.634-3.463 1.181-3.635l8.255-.786 3.3-7.61v-.002zM20 10.857l-2.545 5.866-.39.904-.98.093-6.367.607 4.793 4.233.739.65-.213.96-1.392 6.243 5.508-3.251.847-.5.846.5 5.509 3.25-1.392-6.242-.213-.96.738-.65 4.794-4.233-6.367-.607-.98-.093-.39-.904L20 10.857z" fill="#F8F8FF"/></svg>