<svg width="24" height="25" viewBox="0 0 24 25" fill="none" xmlns="http://www.w3.org/2000/svg">
<path fill-rule="evenodd" clip-rule="evenodd" d="M20.6099 6.19924C20.7141 6.27931 20.8015 6.37913 20.8671 6.49299C20.9327 6.60685 20.9752 6.73252 20.9922 6.86282C21.0092 6.99311 21.0003 7.12548 20.9661 7.25236C20.9319 7.37924 20.8731 7.49813 20.7929 7.60224L10.7929 20.6022C10.7062 20.715 10.5963 20.808 10.4708 20.8749C10.3452 20.9418 10.2069 20.9812 10.0649 20.9904C9.9229 20.9996 9.7806 20.9783 9.64748 20.9281C9.51435 20.8779 9.39348 20.7999 9.29292 20.6992L4.29292 15.6992C4.11076 15.5106 4.00997 15.258 4.01224 14.9958C4.01452 14.7336 4.11969 14.4828 4.3051 14.2974C4.49051 14.112 4.74132 14.0068 5.00352 14.0046C5.26571 14.0023 5.51832 14.1031 5.70692 14.2852L9.90192 18.4802L19.2069 6.38224C19.287 6.27805 19.3868 6.19066 19.5007 6.12507C19.6145 6.05948 19.7402 6.01697 19.8705 5.99998C20.0008 5.98298 20.1332 5.99183 20.26 6.02602C20.3869 6.06021 20.5058 6.11908 20.6099 6.19924Z" fill="#00C6C2"/>
</svg>
