<svg width="40" height="41" fill="none" xmlns="http://www.w3.org/2000/svg"><path fill-rule="evenodd" clip-rule="evenodd" d="M25.928 34.199c1.864.815 2.563-.893 2.563-.893L33.423 8.53c-.04-1.67-2.291-.66-2.291-.66L3.522 18.705s-1.32.466-1.203 1.282c.116.815 1.165 1.204 1.165 1.204l6.95 2.33s2.097 6.872 2.525 8.193c.388 1.281.737 1.32.737 1.32.389.155.738-.117.738-.117l4.505-4.077 6.99 5.359zm1.204-21.28s.97-.582.932 0c0 0 .155.078-.35.622-.465.466-11.455 10.329-12.93 11.649a.408.408 0 00-.195.35l-.427 3.65c-.077.388-.582.427-.699.077l-1.825-5.98a.572.572 0 01.233-.66l15.261-9.708z" fill="#F8F8FF"/></svg>