<svg width="40" height="41" fill="none" xmlns="http://www.w3.org/2000/svg"><path d="M33.07 15.23v.834c0 8.625-6.584 18.583-18.584 18.583-3.708 0-7.125-1.083-10.042-2.917.5.042 1.042.084 1.542.084a13.22 13.22 0 008.125-2.792 6.466 6.466 0 01-6.083-4.542c.416.084.791.125 1.25.125.583 0 1.166-.083 1.708-.25a6.486 6.486 0 01-5.25-6.375v-.083a6.41 6.41 0 002.958.833 6.543 6.543 0 01-2.916-5.458c0-1.208.333-2.333.875-3.292a18.585 18.585 0 0013.458 6.834c-.125-.459-.167-1-.167-1.5a6.526 6.526 0 016.542-6.542c1.875 0 3.583.792 4.75 2.042a13.29 13.29 0 004.167-1.584c-.5 1.542-1.542 2.792-2.875 3.625 1.333-.166 2.583-.5 3.75-1.041a11.94 11.94 0 01-3.209 3.416z" fill="#F8F8FF"/></svg>