<svg width="40" height="41" fill="none" xmlns="http://www.w3.org/2000/svg"><g fill="#F8F8FF"><path d="M31.753 9.179c-.793-.73-4.007-3.067-11.172-3.099 0 0-8.444-.512-12.561 3.265-2.292 2.292-3.099 5.64-3.182 9.802-.083 4.155-.192 11.947 7.318 14.06h.006l-.006 3.22s-.045 1.306.813 1.569c1.037.32 1.652-.673 2.644-1.742a95.714 95.714 0 001.863-2.106c5.135.429 9.085-.557 9.533-.704 1.038-.34 6.908-1.089 7.862-8.88.986-8.016-.48-13.093-3.118-15.385zM32.624 24c-.807 6.505-5.563 6.915-6.44 7.196-.372.122-3.842.986-8.208.698 0 0-3.253 3.925-4.264 4.943-.16.16-.346.224-.468.192-.172-.045-.224-.25-.217-.55 0-.436.025-5.36.025-5.36-.006 0-.006 0 0 0-6.357-1.76-5.986-8.393-5.915-11.863.07-3.47.723-6.32 2.663-8.233 3.476-3.15 10.653-2.683 10.653-2.683 6.057.026 8.957 1.85 9.63 2.459 2.234 1.92 3.373 6.498 2.541 13.201z"/><path d="M23.533 19.378a.406.406 0 01-.403-.384c-.07-1.377-.717-2.05-2.036-2.12a.408.408 0 01.045-.813c1.741.096 2.714 1.095 2.804 2.888a.398.398 0 01-.384.422c-.013.007-.02.007-.026.007z"/><path d="M25.607 20.07h-.006a.407.407 0 01-.397-.417c.032-1.383-.365-2.503-1.21-3.425-.839-.922-1.998-1.422-3.528-1.53a.403.403 0 01-.371-.436.403.403 0 01.435-.371c1.729.128 3.092.73 4.066 1.793.98 1.069 1.453 2.407 1.42 3.988a.41.41 0 01-.409.397z"/><path d="M27.733 20.901a.402.402 0 01-.403-.403c-.02-2.478-.73-4.367-2.177-5.781-1.428-1.396-3.24-2.107-5.372-2.126a.407.407 0 010-.813c2.35.02 4.348.807 5.929 2.356 1.588 1.55 2.4 3.688 2.426 6.351a.4.4 0 01-.403.416c.006 0 .006 0 0 0zM21.19 24.39s.57.052.877-.326l.595-.749c.288-.371.986-.608 1.665-.23a16.59 16.59 0 011.485.947 39.115 39.115 0 011.383 1.108c.442.371.544.915.243 1.498v.013a6.248 6.248 0 01-1.242 1.53c-.006 0-.006.006-.013.006-.428.359-.851.564-1.26.608-.052.013-.11.013-.186.013a1.73 1.73 0 01-.538-.083l-.013-.02c-.64-.178-1.703-.627-3.47-1.606a20.617 20.617 0 01-2.92-1.927c-.428-.34-.864-.717-1.312-1.166l-.045-.044-.045-.045-.044-.045-.045-.045a16.06 16.06 0 01-1.165-1.312 20.232 20.232 0 01-1.928-2.92c-.98-1.773-1.427-2.836-1.607-3.47l-.019-.013a1.742 1.742 0 01-.083-.537c0-.077 0-.135.013-.186.051-.416.256-.832.608-1.261 0-.007.006-.007.006-.013a6.099 6.099 0 011.53-1.242h.013c.576-.301 1.12-.199 1.498.243 0 0 .775.928 1.108 1.383.314.429.736 1.108.948 1.485.377.679.14 1.377-.23 1.665l-.75.595c-.378.308-.326.878-.326.878s1.107 4.212 5.269 5.269z"/></g></svg>