<svg width="128" height="128" fill="none" xmlns="http://www.w3.org/2000/svg"><path d="M13.52 5.12a2.56 2.56 0 00-2.08 2.8l9.04 100.96c.12 1.03.85 1.88 1.84 2.16l40.96 11.76c.47.14.97.14 1.44 0l40.96-11.76c.99-.28 1.72-1.13 1.84-2.16l9.04-100.96c.07-.72-.17-1.43-.66-1.97-.49-.53-1.18-.83-1.9-.83H13.52zm3.28 5.12h94.4l-8.56 96.4L64 117.6l-38.64-10.96-8.56-96.4zm15.28 15.52a2.56 2.56 0 00-2.08 2.8l3.44 37.84a2.562 2.562 0 002.48 2.4H76.8l-1.12 11.76-11.6 2.48-11.76-2.48-.4-4.16a2.562 2.562 0 00-2.56-2.4H36.88c-.72 0-1.41.3-1.9.83-.49.54-.73 1.25-.66 1.97l1.44 15.68a2.56 2.56 0 001.76 2.24l25.44 7.76.32.08c.47.14.97.14 1.44 0l25.76-7.84a2.546 2.546 0 001.84-2.24L95.68 54c.07-.71-.16-1.41-.63-1.94s-1.14-.84-1.85-.86H49.6l-.64-7.92h45.36c1.33.01 2.44-1 2.56-2.32L98 28.56c.07-.72-.17-1.43-.66-1.97-.49-.53-1.18-.83-1.9-.83H32.56c-.16-.02-.32-.02-.48 0zm3.28 5.12h57.28L92 38.16H46.16c-.72 0-1.41.3-1.9.83-.49.54-.73 1.25-.66 1.97L44.8 54a2.558 2.558 0 002.48 2.32H90.4l-3.04 34L64 97.36l-23.36-7.04-.96-11.2h7.36l.32 3.76c.08 1.13.89 2.07 2 2.32l14.24 2.96c.34.07.7.07 1.04 0l14-2.96a2.563 2.563 0 002-2.32l1.52-16.48c.04-.71-.21-1.4-.69-1.91-.49-.52-1.16-.81-1.87-.81H38.24l-2.88-32.8z" fill="#F8F8FF" opacity=".32"/></svg>