<svg width="128" height="128" fill="none" xmlns="http://www.w3.org/2000/svg"><g opacity=".32" clip-path="url(#clip0)"><path d="M106.503 30.624c6.692 3.3 21.979 19.99 21.485 21.09-.501 1.1-7.796 7.195-9.994 9.593-4.774 10.955-9.079 18.8-10.625 10.064-1.757 10.506-5.519 9.586-6.989 14.719-2.144 10.56-8.312 10.92-11.113 12.891-2.569 2.569-6.248 1.087-9.088 2.544-7.214 2.692-24.255 3.167-31.068.099-3.645-1.571-5.47.873-15.756-6.174-5.481-5.45-3.932-7.929-5.829-11.59-3.132-5.402-4.241-1.877-6.655-13.944-.732 9.743-5.99 4.53-10.835-8.666 0 0-9.53-8.448-10.024-9.535-.501-1.101 14.786-17.791 21.486-21.09 18.995-8.613 64.067-8.386 85.005 0zM74.04 59.644C84.302 63.122 94 74.163 92.398 84.293c0 5.26-.469 8.816-1.234 11.212 8.762-5.75 4.923-7.598 8.409-13.126 3.29-5.614 3.95-3.56 5.65-11.158-1.017-7.606-2-21.086-3.215-25.111-1.062-3.458-6.199-10.644-9.513-15.043-16.162-6.238-48.162-4.238-56.372-.247-3.31 4.372-8.668 11.805-9.755 15.362-1.148 3.813-2.192 16.922-3.155 24.677.794 7.376 6.358 10.638 7.188 14.543.888 6.286 3.758 8.425 7.74 10.572-.89-2.445-1.408-6.15-1.408-11.83-1.66-11.722 9.73-21.697 18.955-24.572 2.55-6.77 16.349-6.145 18.352.074zm1.787 28.252c0-7.162-5.87-13.115-10.266-13.473l.26-10.533c8.492-.54 7.506-6.758-1.07-7.194-6.59.057-11.216 6.124-1.104 7.182l-.008 10.508c-4.396 0-10.184 6.071-10.184 13.366.685-7.32 6.387-11.107 11.597-10.95 5.076.154 9.657 4.064 10.775 11.094zM41.56 52.6c0-1.761-1.92-2.868-3.448-1.987-1.528.88-1.528 3.094 0 3.975 1.528.88 3.448-.226 3.448-1.988zm-9 11.51c-5.848-3.37-5.848-11.845 0-15.217 5.849-3.371 13.198.866 13.198 7.61 0 6.742-7.35 10.98-13.198 7.608zm55.053 0c-5.848-3.37-5.848-11.845 0-15.217 5.849-3.371 13.198.866 13.198 7.61 0 6.742-7.35 10.98-13.198 7.608zm4.406-11.51c0-1.761-1.92-2.868-3.447-1.987-1.528.88-1.528 3.094 0 3.975 1.528.88 3.447-.226 3.447-1.988z" fill="#F8F8FF"/></g><defs><clipPath id="clip0"><path fill="#fff" d="M0 0h128v128H0z"/></clipPath></defs></svg>