<svg width="128" height="128" fill="none" xmlns="http://www.w3.org/2000/svg"><path d="M58.5 14.855c-5.704 0-11.724 1.068-17.415 3.09-6.815 2.422-19.7 7.844-29.43 16.945C1.775 44.132-.661 53.022.35 58.265c1.897 9.825 11.342 16.552 18.52 21.5-5.243 3.21-10.94 7.632-13.22 12.675-2.153 4.757-2.268 9.655-.335 13.795 1.444 3.09 3.91 5.382 6.595 6.13 1.858.517 3.78.78 5.71.78 7.623 0 15.145-4.161 19.635-10.855a23.007 23.007 0 001.75-3.115c.274.325.558.633.85.91 2.45 2.322 5.37 2.32 6.33 2.32 2.96 0 5.042-1.283 6.545-2.875 1.254.835 2.73 1.28 4.32 1.28.192 0 .39-.002.58-.025 3.182-.389 6.615-3.495 6.615-3.495.133.115.266.222.41.33 1.352 1.019 3.052 1.515 5.195 1.515.356 0 .724-.01 1.095-.035 2.619-.177 4.593-.803 5.835-1.325a19.722 19.722 0 004.865-2.59c.438-.323.856-.662 1.245-1.02a8.282 8.282 0 002.67 1.03c.476.097.973.145 1.485.145 1.346 0 2.804-.33 4.45-1.005a19.717 19.717 0 005.19-2.7c4.459-3.28 6.629-7.177 6.445-11.575-.005-.136-.015-.272-.025-.41a18.84 18.84 0 012.04-.105c.868 0 1.783.058 2.715.165 6.105.714 7.418 3.595 7.395 4.55-.039.25-.473.654-.88.905-2.583 1.597-3.658 3.671-3.2 6.165.489 2.698 2.755 4.59 5.51 4.59a8.08 8.08 0 001.365-.13c3.274-.553 9.513-4.616 9.8-11.92.169-4.24-1.568-8.577-4.76-11.9-4.012-4.173-9.894-6.47-16.565-6.47h-.155a29.71 29.71 0 00-8 1.125l-.08-.58c-.156-1.098-.216-1.51-.09-2.465.112-.858.636-2.407.89-3.155.356-1.044.614-1.799.525-2.915-.174-2.179-1.985-5.88-7.66-5.92h-.16c-5.043 0-8.16 1.465-9.26 4.355-.138.36-.301.837-.47 1.385-1.178-1.24-3.07-2.215-5.97-2.235h-.165c-.602 0-1.175.024-1.72.065 7.275-6.74 11.913-16.42 9.55-25.695-2.297-9.011-11.976-14.61-25.26-14.61zm-.005 5.095c10.214 0 18.56 3.82 20.335 10.78 2.596 10.178-6.245 22.352-17.56 26.73-5.88 2.276-11.17 3.015-15.24 3.015-2.921 0-5.217-.384-6.65-.855-3.902-1.28-6.192-3.848-6.75-5.3-.218-.568-.597-1.525 0-1.855a.598.598 0 01.28-.095c.235 0 .51.242 1.215 1.02.816.901 3.796 3.13 9.31 3.13.776 0 1.607-.04 2.485-.14 18.675-2.094 29.923-16.607 26.37-24.415-1.306-2.867-5.887-4.905-12.545-4.905-6.034 0-13.775 1.678-22.325 5.94-21.955 10.939-23.143 19.955-23.33 23.38-.515 9.42 11.626 14.38 18.195 21.39.087.092.17.183.255.275a3398.859 3398.859 0 0111.69-6.41c2.312-3.359 7.008-7.065 10.395-7.065 5.417 0 3.55 7.78 3.55 7.78s.111-.362.26-.365c.118-.003.498-.605 1.43-.605.279 0 .603.054.99.195 1.72.63 1.33 1.837 1.34 1.96.02.238-2.03 7.156-2.885 11.59-.407 2.115-.17 3.655-.05 3.655.169 0 .51-.541.83-1.12l-.005-.015s.238-.434.64-1.22c.051-.105.08-.17.08-.17l.005.005a101.22 101.22 0 001.9-3.97c1.503-3.313 7.238-16.094 7.725-17.51.486-1.416.742-2.88.98-3.505.235-.614 2.193-1.08 4.51-1.08h.125c2.37.018 2.607 1.025 2.625 1.235.018.21-1.129 3.014-1.39 4.995-.261 1.981-.01 2.976.205 4.64.143 1.09.824 2.47 1.625 4.035 2.45-4.009 6.768-11.677 7.185-13.825.284-1.467.742-2.875.98-3.5.235-.614 2.196-1.085 4.51-1.085h.12c2.37.018 2.612 1.03 2.63 1.24.018.21-1.129 3.014-1.39 4.995-.261 1.981-.01 2.971.205 4.635.184 1.423 1.29 3.344 2.38 5.52 2.982-1.47 6.541-2.46 10.65-2.48h.13c10.544 0 16.491 6.846 16.245 13.08-.184 4.92-4.71 6.952-5.55 7.095a3.24 3.24 0 01-.525.06c-.284 0-.446-.103-.505-.42-.062-.33.158-.482.875-.925.717-.443 2.858-1.912 3.24-4.585.384-2.673-1.623-9.055-11.845-10.25a28.431 28.431 0 00-3.305-.195c-3.233 0-5.906.604-8.09 1.515.537 1.39.933 2.836.995 4.295.133 3.205-2.081 5.573-4.38 7.265a14.553 14.553 0 01-3.97 2.04c-.799.338-1.816.68-2.655.68a2.41 2.41 0 01-.48-.045c-1.994-.402-3.057-2.171-1.7-6.075.735-2.112 2.848-5.33 6.255-8.1-.778-1.6-1.645-3.23-2.085-4.725-.868-2.952-1.135-4.735-1.135-4.735s-2.815 5.823-6.44 11.125c-.21.307-.418.605-.625.905.712 1.651 1.276 3.404 1.35 5.17.133 3.203-1.256 5.623-3.555 7.315a14.56 14.56 0 01-3.715 1.955c-.732.317-2.213.837-4.32.98-.254.018-.504.03-.75.03-.868 0-1.649-.124-2.135-.49-.853-.64-.956-1.44-.515-2.525.374-.922 3.165-4.112 5.51-6.905a58.23 58.23 0 001.815-2.285.166.166 0 01-.01-.03s.424-.548 1.115-1.505c-.855-1.84-1.943-3.764-2.455-5.5-.868-2.952-1.13-4.74-1.13-4.74s-2.85 7.306-5.82 13.135c-2.299 4.513-3.834 7.25-4.525 8.45-.005.03-.01.045-.01.045s-.1.176-.28.45c-.087.148-.13.225-.13.225l-.005-.02c-.77 1.137-2.502 3.365-4.22 3.365-4.72 0-2.985-9.58-2.985-9.58s-1.379 3.549-2.935 6.595c-1.267 2.483-2.421 4.585-4.945 4.585-.73 0-1.878-.024-2.835-.93-2.169-2.058-3.825-7.285-3.5-11.33.276-3.443.805-5.826 1.53-7.815a156.525 156.525 0 00-4.315 2.435c-.78.458-1.567.924-2.34 1.38.026.046.052.094.075.14 1.94 3.748 2.451 11.952-1.775 18.255-3.428 5.112-9.243 8.605-15.41 8.605-1.439 0-2.896-.191-4.345-.595-2.473-.689-6.213-5.803-2.99-12.93 2.841-6.282 14.202-12.23 17.195-13.71.25-.138.53-.289.825-.45-5.968-5.22-20.876-12.259-22.965-23.075-.589-3.044.838-10.331 9.785-18.7 7.524-7.037 17.993-12.424 27.66-15.86 5.322-1.892 10.738-2.795 15.715-2.795zm1.26 12.185c5.453 0 7.676 1.583 7.935 1.975.358.794.277 2.565-1.105 5.005C63.623 44.337 55.91 50.137 45.36 51.32c-.658.074-1.3.11-1.915.11-3.945 0-5.585-1.505-5.6-1.52-.917-1.014-2.386-2.632-4.925-2.635-.947 0-1.87.249-2.745.735-.745.412-4.356 2.74-2.295 8.1 1.119 2.908 4.613 6.6 9.92 8.34 1.418.466 3.155.79 5.065.965a25.418 25.418 0 00-2.04 2.28c-1.651.901-4.224 2.31-6.925 3.795l-.51.275c-1.651-1.454-3.412-2.804-5.135-4.13-5.612-4.316-9.275-7.414-9.08-10.985.412-7.547 11.386-14.558 20.52-19.11 6.994-3.484 14.118-5.405 20.06-5.405zM66.27 60.77c-.044.166-.082.338-.125.515-.146.589-.31 1.251-.51 1.83-.17.46-.878 2.1-1.815 4.23a6.544 6.544 0 00-.44-.23c-.256-1.49-.794-3.021-1.805-4.35a62.83 62.83 0 001.535-.57 32.118 32.118 0 003.16-1.425zm-11.76 8.395c-.88 0-2.309.768-3.64 2.255-1.147 1.285-3.101 4.595-4.015 7.365-1.818 5.504-1.035 11.097.255 11.435.038.01.081.015.12.015 1.51 0 3.883-7.054 5.03-9.855.74-1.802 3.615-9.797 2.985-10.865-.138-.233-.395-.35-.735-.35zm38.24 9.065c-1.91 1.687-3.009 3.455-3.49 4.505-1.226 2.673-1.286 3.529-.915 3.795 1.784-.64 4.73-2.186 4.755-6.32.005-.62-.127-1.286-.35-1.98zM31.1 82.785c-.184.108-.356.213-.525.315v.005s-.08.045-.225.13c-.88.527-1.609.963-2.1 1.26-2.169 1.354-5.438 3.556-7.97 5.945-4.155 3.92-5.027 9.36-2.835 10.63.468.271 1.086.405 1.795.405 2.355 0 5.746-1.481 8.35-4.32 3.553-3.878 5.02-8.792 3.51-14.37zm46.13.64c-.737.968-1.416 1.828-2 2.555-1.004 1.25-3.555 3.99-3.555 3.99s-.361.343-.205.435c.051.03.116.045.19.045.243 0 .6-.145.985-.345 1.416-.89 4.587-3.108 4.595-6.395 0-.095-.002-.188-.01-.285z" fill="#F8F8FF" opacity=".32"/></svg>